<svg width="0" height="0" class="hidden">
  <symbol version="1.1" id="chevron-left" xmlns="http://www.w3.org/2000/svg" xmlns:xlink="http://www.w3.org/1999/xlink" x="0px" y="0px" enable-background="new 0 0 92 92" xml:space="preserve" viewBox="0 0 92 92">
    <path id="XMLID_423_" d="M61.8,68.1c1.6,1.5,1.6,4.1,0.1,5.7C61.1,74.6,60,75,59,75c-1,0-2-0.4-2.8-1.1l-26-25
	C29.4,48.1,29,47.1,29,46s0.4-2.1,1.2-2.9l26-25c1.6-1.5,4.1-1.5,5.7,0.1c1.5,1.6,1.5,4.1-0.1,5.7L38.8,46L61.8,68.1z"></path>
  </symbol>
  <symbol id="chevron-right" xmlns="http://www.w3.org/2000/svg" fill="none" stroke="currentcolor" stroke-linecap="round" stroke-linejoin="round" stroke-width="2" viewBox="0 0 32 32">
    <path d="M12 30 L24 16 12 2"></path>
  </symbol>
  <symbol id="search" xmlns="http://www.w3.org/2000/svg" viewBox="0 0 21.8 23.8">
    <defs></defs>
    <path d="M11,17.9a8.7,8.7,0,0,0,.8,4.8,1,1,0,0,0,1.2.4.8.8,0,0,0,.4-1.2,8.3,8.3,0,0,1-.7-3.8,7.6,7.6,0,0,1,15.2,1.1A7.7,7.7,0,0,1,16.1,25a.8.8,0,0,0-1.2.2.9.9,0,0,0,.2,1.3A10,10,0,0,0,19.6,28a9.3,9.3,0,0,0,6.1-1.7l5.5,6.4a.9.9,0,0,0,.6.3.7.7,0,0,0,.7-.2.9.9,0,0,0,.1-1.2L27,25.2a8.9,8.9,0,0,0,2.6-5.8A9.3,9.3,0,1,0,11,17.9Z" transform="translate(-10.9 -9.3)"></path>
  </symbol>
  <symbol version="1.1" id="sprite-global" xmlns="http://www.w3.org/2000/svg" xmlns:xlink="http://www.w3.org/1999/xlink" x="0px" y="0px" xml:space="preserve" viewBox="0 0 490 490">
    <g id="XMLID_816_">
      <g>
        <path d="M350,105V25H140v80H0v360h490V105H350z M170,55h150v50H170V55z M460,435H30V212.591l160,67.368V355h110v-75.041
			l160-67.368V435z M220,325v-70h50v70H220z M460,180.041l-160,67.368V225H190v22.409L30,180.041V135h430V180.041z"></path>
      </g>
    </g>
    <g></g>
    <g></g>
    <g></g>
    <g></g>
    <g></g>
    <g></g>
    <g></g>
    <g></g>
    <g></g>
    <g></g>
    <g></g>
    <g></g>
    <g></g>
    <g></g>
    <g></g>
  </symbol>
  <symbol xmlns="http://www.w3.org/2000/svg" viewBox="0 0 24 24" id="suitcase">
    <path d="M12 4C6.486 4 2 8.486 2 14a9.89 9.89 0 0 0 1.051 4.445c.17.34.516.555.895.555h16.107c.379 0 .726-.215.896-.555A9.89 9.89 0 0 0 22 14c0-5.514-4.486-10-10-10zm7.41 13H4.59A7.875 7.875 0 0 1 4 14c0-4.411 3.589-8 8-8s8 3.589 8 8a7.875 7.875 0 0 1-.59 3z"></path>
    <path d="M10.939 12.939a1.53 1.53 0 0 0 0 2.561 1.53 1.53 0 0 0 2.121-.44l3.962-6.038a.034.034 0 0 0 0-.035.033.033 0 0 0-.045-.01l-6.038 3.962z"></path>
  </symbol>
  <symbol version="1.1" id="tachometer" xmlns="http://www.w3.org/2000/svg" xmlns:xlink="http://www.w3.org/1999/xlink" x="0px" y="0px" xml:space="preserve" viewBox="0 0 310 310">
    <g id="XMLID_826_">
      <path id="XMLID_827_" d="M302.973,57.388c-4.87,2.16-9.877,3.983-14.993,5.463c6.057-6.85,10.675-14.91,13.494-23.73
		c0.632-1.977-0.023-4.141-1.648-5.434c-1.623-1.294-3.878-1.449-5.665-0.39c-10.865,6.444-22.587,11.075-34.878,13.783
		c-12.381-12.098-29.197-18.983-46.581-18.983c-36.695,0-66.549,29.853-66.549,66.547c0,2.89,0.183,5.764,0.545,8.598
		C101.163,99.244,58.83,76.863,29.76,41.204c-1.036-1.271-2.632-1.956-4.266-1.825c-1.635,0.128-3.104,1.05-3.93,2.467
		c-5.896,10.117-9.013,21.688-9.013,33.461c0,16.035,5.725,31.249,15.838,43.137c-3.075-1.065-6.059-2.396-8.907-3.977
		c-1.529-0.851-3.395-0.838-4.914,0.033c-1.52,0.871-2.473,2.473-2.513,4.224c-0.007,0.295-0.007,0.59-0.007,0.889
		c0,23.935,12.882,45.484,32.577,57.229c-1.692-0.169-3.383-0.414-5.063-0.735c-1.732-0.331-3.513,0.276-4.681,1.597
		c-1.17,1.32-1.557,3.16-1.018,4.84c7.29,22.76,26.059,39.501,48.749,44.605c-18.819,11.787-40.34,17.961-62.932,17.961
		c-4.714,0-9.455-0.277-14.095-0.826c-2.305-0.274-4.509,1.087-5.294,3.279c-0.785,2.193,0.047,4.638,2.008,5.895
		c29.023,18.609,62.582,28.445,97.047,28.445c67.754,0,110.139-31.95,133.764-58.753c29.46-33.421,46.356-77.658,46.356-121.367
		c0-1.826-0.028-3.67-0.084-5.508c11.623-8.757,21.63-19.355,29.773-31.536c1.237-1.85,1.103-4.295-0.33-5.998
		C307.394,57.037,305.009,56.486,302.973,57.388z"></path>
    </g>
    <g></g>
    <g></g>
    <g></g>
    <g></g>
    <g></g>
    <g></g>
    <g></g>
    <g></g>
    <g></g>
    <g></g>
    <g></g>
    <g></g>
    <g></g>
    <g></g>
    <g></g>
  </symbol>
  <symbol version="1.1" id="twitter" xmlns="http://www.w3.org/2000/svg" xmlns:xlink="http://www.w3.org/1999/xlink" x="0px" y="0px" xml:space="preserve" viewBox="0 0 310 310">
    <g id="XMLID_822_">
      <path id="XMLID_823_" d="M297.917,64.645c-11.19-13.302-31.85-18.728-71.306-18.728H83.386c-40.359,0-61.369,5.776-72.517,19.938
		C0,79.663,0,100.008,0,128.166v53.669c0,54.551,12.896,82.248,83.386,82.248h143.226c34.216,0,53.176-4.788,65.442-16.527
		C304.633,235.518,310,215.863,310,181.835v-53.669C310,98.471,309.159,78.006,297.917,64.645z M199.021,162.41l-65.038,33.991
		c-1.454,0.76-3.044,1.137-4.632,1.137c-1.798,0-3.592-0.484-5.181-1.446c-2.992-1.813-4.819-5.056-4.819-8.554v-67.764
		c0-3.492,1.822-6.732,4.808-8.546c2.987-1.814,6.702-1.938,9.801-0.328l65.038,33.772c3.309,1.718,5.387,5.134,5.392,8.861
		C204.394,157.263,202.325,160.684,199.021,162.41z"></path>
    </g>
    <g></g>
    <g></g>
    <g></g>
    <g></g>
    <g></g>
    <g></g>
    <g></g>
    <g></g>
    <g></g>
    <g></g>
    <g></g>
    <g></g>
    <g></g>
    <g></g>
    <g></g>
  </symbol>
  <symbol version="1.1" xmlns="http://www.w3.org/2000/svg" xmlns:xlink="http://www.w3.org/1999/xlink" enable-background="new 0 0 470 470" viewBox="0 0 470 470" id="youtube">
    <g>
      <path d="m126.184,358.951c19.299,0 35-15.701 35-35s-15.701-35-35-35-35,15.701-35,35 15.701,35 35,35zm0-55c11.028,0 20,8.972 20,20s-8.972,20-20,20-20-8.972-20-20 8.971-20 20-20z"></path>
      <path d="m343.816,288.951c-19.299,0-35,15.701-35,35s15.701,35 35,35 35-15.701 35-35-15.701-35-35-35zm0,55c-11.028,0-20-8.972-20-20s8.972-20 20-20 20,8.972 20,20-8.971,20-20,20z"></path>
      <path d="m137.5,116.049h23.779c4.143,0 7.5-3.358 7.5-7.5s-3.357-7.5-7.5-7.5h-23.779c-10.423,0-27.031,7.176-34.177,14.767l-60.088,63.845c-2.051,2.179-2.609,5.368-1.423,8.115 1.187,2.747 3.893,4.525 6.885,4.525h290.271c2.562,0 4.945-1.307 6.323-3.467 1.377-2.159 1.558-4.873 0.478-7.195l-30.854-66.365c-3.315-7.046-14.628-14.225-22.415-14.225h-101.221c-4.143,0-7.5,3.358-7.5,7.5l-.001,68.752h-117.722l48.19-51.204c4.243-4.508 17.066-10.048 23.254-10.048zm61.279,0h93.7c2.203,0.103 7.842,3.681 8.849,5.581l25.883,55.671h-128.433l.001-61.252z"></path>
      <path d="m470,257.692c0-26.631-20.555-55.149-45.819-63.57-0.017-0.006-35.078-11.693-35.078-11.693-5.854-1.951-13.576-8.812-16.203-14.394l-30.84-65.535c-8.299-17.636-30.068-31.451-49.56-31.451h-155c-18.639,0-43.247,10.632-56.022,24.206l-69.158,73.482c-6.909,7.34-12.32,20.984-12.32,31.064v94.15c0,20.678 16.822,37.5 37.5,37.5h14.06c3.775,37.846 35.8,67.5 74.624,67.5s70.849-29.654 74.624-67.5h45.509c4.143,0 7.5-3.358 7.5-7.5s-3.357-7.5-7.5-7.5h-45.509c-3.775-37.846-35.8-67.5-74.624-67.5s-70.849,29.654-74.624,67.5h-14.06c-12.406,0-22.5-10.093-22.5-22.5v-94.15c0-6.294 3.929-16.2 8.242-20.783l69.159-73.483c9.941-10.563 30.594-19.486 45.099-19.486h155c13.682,0 30.162,10.458 35.987,22.838l30.84,65.535c4.421,9.395 15.182,18.955 25.031,22.238l28.498,9.499c-0.492,2.841-0.748,5.729-0.748,8.642 0,25.238 18.65,46.198 42.892,49.831v29.32c0,12.407-8.357,22.5-18.631,22.5h-17.929c-3.775-37.846-35.8-67.5-74.624-67.5-41.355,0-75,33.645-75,75s33.645,75 75,75c38.824,0 70.849-29.654 74.624-67.5h17.929c18.544,0 33.631-16.822 33.631-37.5v-36.26zm-343.816,6.259c33.084,0 60,26.916 60,60s-26.916,60-60,60-60-26.916-60-60 26.916-60 60-60zm217.632,120c-33.084,0-60-26.916-60-60s26.916-60 60-60 60,26.916 60,60-26.916,60-60,60zm83.292-169.15c0-0.969 0.04-1.934 0.117-2.893 13.16,7.627 23.787,22.37 26.864,37.266-15.466-3.785-26.981-17.756-26.981-34.373z"></path>
    </g>
  </symbol>
  <symbol version="1.1" xmlns="http://www.w3.org/2000/svg" xmlns:xlink="http://www.w3.org/1999/xlink" enable-background="new 0 0 269.125 269.125" viewBox="0 0 269.125 269.125" id="auto">
    <g>
      <path d="m262.125,54.661h-255.125c-3.866,0-7,3.134-7,7v145.804c0,3.866 3.134,7 7,7h255.125c3.866,0 7-3.134 7-7v-145.804c0-3.867-3.134-7-7-7zm-7,145.803h-241.125v-131.803h241.125v131.803z"></path>
      <path d="m41.507,102.96h186.111c3.866,0 7-3.134 7-7s-3.134-7-7-7h-186.111c-3.866,0-7,3.134-7,7s3.134,7 7,7z"></path>
      <path d="m41.507,125.458h186.111c3.866,0 7-3.134 7-7s-3.134-7-7-7h-186.111c-3.866,0-7,3.134-7,7s3.134,7 7,7z"></path>
      <path d="m41.507,147.955h186.111c3.866,0 7-3.134 7-7s-3.134-7-7-7h-186.111c-3.866,0-7,3.134-7,7s3.134,7 7,7z"></path>
      <path d="m229.176,170.851h-36.901c-3.866,0-7,3.134-7,7s3.134,7 7,7h36.901c3.866,0 7-3.134 7-7s-3.134-7-7-7z"></path>
    </g>
  </symbol>
  <symbol version="1.1" id="check" xmlns="http://www.w3.org/2000/svg" xmlns:xlink="http://www.w3.org/1999/xlink" x="0px" y="0px" xml:space="preserve" viewBox="0 0 301.295 301.295">
    <g>
      <g>
        <g>
          <path d="M294.126,257.186h-14.622V36.94c0-3.96-3.21-7.169-7.168-7.169H161.379c-3.959,0-7.169,3.21-7.169,7.169v220.246h-7.394
				V114.419c0-3.96-3.21-7.169-7.169-7.169H28.691c-3.96,0-7.169,3.21-7.169,7.169v90.783c0,0.009,0,0.017,0,0.026v51.958H7.169
				c-3.959,0-7.169,3.209-7.169,7.169s3.21,7.169,7.169,7.169h286.958c3.958,0,7.168-3.209,7.168-7.169
				C301.295,260.395,298.085,257.186,294.126,257.186z M132.479,257.186h-30.033l11.223-11.221c2.8-2.8,2.8-7.338,0-10.138
				c-2.799-2.799-7.338-2.799-10.138,0l-21.36,21.36h-37.02l20.301-20.301c2.8-2.8,2.8-7.338,0-10.138s-7.338-2.8-10.138,0
				l-19.455,19.455v-38.018l20.402-20.402c2.8-2.8,2.8-7.338,0-10.138s-7.338-2.8-10.138,0l-10.264,10.264v-66.321h96.62V257.186z
				 M265.167,257.186h-96.62V44.109h96.62V257.186z"></path>
          <path d="M54.517,148.609h16.739c3.959,0,7.169-3.209,7.169-7.169s-3.21-7.169-7.168-7.169h-16.74
				c-3.959,0-7.169,3.209-7.169,7.169S50.558,148.609,54.517,148.609z"></path>
          <path d="M230.249,77.826h16.74c3.959,0,7.169-3.209,7.169-7.169s-3.21-7.169-7.169-7.169h-16.74
				c-3.959,0-7.168,3.209-7.168,7.169S226.29,77.826,230.249,77.826z"></path>
          <path d="M230.249,113.218h16.74c3.959,0,7.169-3.209,7.169-7.168c0-3.96-3.21-7.169-7.169-7.169h-16.74
				c-3.959,0-7.168,3.209-7.168,7.169C223.08,110.009,226.29,113.218,230.249,113.218z"></path>
          <path d="M98.039,148.609h16.74c3.959,0,7.169-3.209,7.169-7.169s-3.21-7.169-7.169-7.169h-16.74
				c-3.959,0-7.168,3.209-7.168,7.169S94.08,148.609,98.039,148.609z"></path>
          <path d="M98.039,184.001h16.74c3.959,0,7.169-3.209,7.169-7.169c0-3.959-3.21-7.168-7.169-7.168h-16.74
				c-3.959,0-7.168,3.209-7.168,7.168C90.87,180.792,94.08,184.001,98.039,184.001z"></path>
          <path d="M98.039,219.392h16.74c3.959,0,7.169-3.209,7.169-7.168c0-3.96-3.21-7.169-7.169-7.169h-16.74
				c-3.959,0-7.168,3.209-7.168,7.169C90.87,216.183,94.08,219.392,98.039,219.392z"></path>
          <path d="M230.249,148.609h16.74c3.959,0,7.169-3.209,7.169-7.169s-3.21-7.169-7.169-7.169h-16.74
				c-3.959,0-7.168,3.209-7.168,7.169S226.29,148.609,230.249,148.609z"></path>
          <path d="M186.727,184.001h16.739c3.959,0,7.169-3.209,7.169-7.169c0-3.959-3.21-7.168-7.169-7.168h-16.739
				c-3.959,0-7.169,3.209-7.169,7.168C179.558,180.792,182.768,184.001,186.727,184.001z"></path>
          <path d="M186.727,148.609h16.739c3.959,0,7.169-3.209,7.169-7.169s-3.21-7.169-7.169-7.169h-16.739
				c-3.959,0-7.169,3.209-7.169,7.169S182.768,148.609,186.727,148.609z"></path>
          <path d="M186.727,219.392h16.739c3.959,0,7.169-3.209,7.169-7.168c0-3.96-3.21-7.169-7.169-7.169h-16.739
				c-3.959,0-7.169,3.209-7.169,7.169C179.558,216.183,182.768,219.392,186.727,219.392z"></path>
          <path d="M230.249,219.392h16.74c3.959,0,7.169-3.209,7.169-7.168c0-3.96-3.21-7.169-7.169-7.169h-16.74
				c-3.959,0-7.168,3.209-7.168,7.169C223.08,216.183,226.29,219.392,230.249,219.392z"></path>
          <path d="M230.249,184.001h16.74c3.959,0,7.169-3.209,7.169-7.169c0-3.959-3.21-7.168-7.169-7.168h-16.74
				c-3.959,0-7.168,3.209-7.168,7.168C223.08,180.792,226.29,184.001,230.249,184.001z"></path>
          <path d="M186.727,77.826h16.739c3.959,0,7.169-3.209,7.169-7.169s-3.21-7.169-7.169-7.169h-16.739
				c-3.959,0-7.169,3.209-7.169,7.169S182.768,77.826,186.727,77.826z"></path>
          <path d="M186.727,113.218h16.739c3.959,0,7.169-3.209,7.169-7.168c0-3.96-3.21-7.169-7.169-7.169h-16.739
				c-3.959,0-7.169,3.209-7.169,7.169C179.558,110.009,182.768,113.218,186.727,113.218z"></path>
        </g>
      </g>
    </g>
    <g></g>
    <g></g>
    <g></g>
    <g></g>
    <g></g>
    <g></g>
    <g></g>
    <g></g>
    <g></g>
    <g></g>
    <g></g>
    <g></g>
    <g></g>
    <g></g>
    <g></g>
  </symbol>
  <symbol version="1.1" id="commercial" xmlns="http://www.w3.org/2000/svg" xmlns:xlink="http://www.w3.org/1999/xlink" x="0px" y="0px" xml:space="preserve" viewBox="0 0 490 490">
    <g id="bold_copy_11_">
      <path d="M22.969,401.846h444.063c12.633,0,22.969-10.336,22.969-22.969V111.123c0-12.633-10.336-22.969-22.969-22.969H22.969
		C10.336,88.154,0,98.49,0,111.123v267.77C0,391.51,10.336,401.846,22.969,401.846z M30.625,371.221V233.516h428.75v137.705H30.625z
		 M459.375,118.779v53.502H30.625v-53.502H459.375z"></path>
      <rect x="84.219" y="284.552" width="153.125" height="30.625"></rect>
    </g>
    <g></g>
    <g></g>
    <g></g>
    <g></g>
    <g></g>
    <g></g>
    <g></g>
    <g></g>
    <g></g>
    <g></g>
    <g></g>
    <g></g>
    <g></g>
    <g></g>
    <g></g>
  </symbol>
  <symbol xmlnsDc="http://purl.org/dc/elements/1.1/" xmlnsCc="http://creativecommons.org/ns#" xmlnsRdf="http://www.w3.org/1999/02/22-rdf-syntax-ns#" xmlnsSvg="http://www.w3.org/2000/svg" xmlns="http://www.w3.org/2000/svg" xmlns:xlink="http://www.w3.org/1999/xlink" version="1.1" viewBox="0 0 128 128" id="creditcard">
    <title>Facebook Icon</title>
    <desc>This is shape (source) for Clarity vector icon theme for gtk</desc>
    <metadata>
      <rdf:RDF>
        <cc:Work rdfAbout="">
          <dc:title>Facebook Icon</dc:title>
          <dc:description>This is shape (source) for Clarity vector icon theme for gtk</dc:description>
          <dc:creator>
            <cc:Agent>
              <dc:title>Jakub Jankiewicz</dc:title>
            </cc:Agent>
          </dc:creator>
          <dc:rights>
            <cc:Agent>
              <dc:title>Jakub Jankiewicz</dc:title>
            </cc:Agent>
          </dc:rights>
          <dc:date>2010</dc:date>
          <dc:format>image/svg+xml</dc:format>
          <dc:type rdfResource="http://purl.org/dc/dcmitype/StillImage"></dc:type>
          <cc:license rdfResource="http://creativecommons.org/licenses/by-sa/3.0/"></cc:license>
        </cc:Work>
      </rdf:RDF>
    </metadata>
    <path d="m 18.109375,10.15625 c -4.406644,0 -7.96875,3.530856 -7.96875,7.9375 l 0,91.8125 c 0,4.40664 3.562106,7.9375 7.96875,7.9375 l 91.781255,0 c 4.40663,0 7.96875,-3.53086 7.96875,-7.9375 l 0,-91.8125 c 0,-4.406644 -3.56212,-7.9375 -7.96875,-7.9375 l -91.781255,0 z m 87.781255,13.96875 0,12.34375 c -4.88335,0 -10.237379,0.15625 -12.656255,0.15625 -2.636226,0 -4.086101,0.856485 -4.8125,1.84375 -0.876865,1.191768 -1.34375,2.898646 -1.34375,4.96875 l 0,4.34375 17.687505,0 0,12.84375 -17.687505,0 0,48.84375 -18.03125,0 0,-48.84375 -8.40625,0 0,-12.84375 8.40625,0 0,-4.65625 c -3.42e-4,-5.188535 0.697053,-8.444342 1.78125,-11 1.122895,-2.555502 4.947986,-4.941227 7.96875,-6.375 3.594788,-1.706228 5.69838,-1.625 27.093755,-1.625 z"></path>
  </symbol>
  <symbol version="1.1" id="facebook" xmlns="http://www.w3.org/2000/svg" xmlns:xlink="http://www.w3.org/1999/xlink" x="0px" y="0px" xml:space="preserve" viewBox="0 0 489.075 489.075">
    <g>
      <path d="M482.453,220.775l-115.5-111.2v-88.5c0-11.4-9.4-20.8-20.8-20.8s-20.8,9.4-20.8,20.8v48.5l-66.6-64.1
		c-7.3-7.3-19.8-7.3-28.1,0l-223.6,215.3c-8.3,8.3-9.4,20.8-1,29.1c8.4,8.3,20.8,9.4,29.1,1l3.1-3v220.4c0,11.4,9.4,20.8,20.8,20.8
		h372.4c11.4,0,19.8-9.4,20.8-19.8v-219.3l2.1,2c15.2,10.5,26,3.1,29.1-2.1C490.753,241.575,490.753,228.075,482.453,220.775z
		 M281.653,448.575h-72.8v-111.3h72.8V448.575z M410.653,448.575h-88.4v-132.1c0-11.4-9.4-20.8-20.8-20.8h-113.4
		c-11.4,0-20.8,9.4-20.8,20.8v132.1h-87.4v-203.9h330.8V448.575L410.653,448.575z M83.853,204.175l161.4-155l159.8,155H83.853z"></path>
    </g>
    <g></g>
    <g></g>
    <g></g>
    <g></g>
    <g></g>
    <g></g>
    <g></g>
    <g></g>
    <g></g>
    <g></g>
    <g></g>
    <g></g>
    <g></g>
    <g></g>
    <g></g>
  </symbol>
  <symbol fill="none" xmlns="http://www.w3.org/2000/svg" viewBox="0 0 24 24" id="home">
    <path d="M12 16C14.2091 16 16 14.2091 16 12C16 9.79086 14.2091 8 12 8C9.79086 8 8 9.79086 8 12C8 14.2091 9.79086 16 12 16Z" stroke="currentColor" stroke-width="1.5" stroke-linecap="round" stroke-linejoin="round"></path>
    <path d="M3 16V8C3 5.23858 5.23858 3 8 3H16C18.7614 3 21 5.23858 21 8V16C21 18.7614 18.7614 21 16 21H8C5.23858 21 3 18.7614 3 16Z" stroke="currentColor" stroke-width="1.5"></path>
    <path d="M17.5 6.51L17.51 6.49889" stroke="currentColor" stroke-width="1.5" stroke-linecap="round" stroke-linejoin="round"></path>
  </symbol>
  <symbol version="1.1" id="instagram" xmlns="http://www.w3.org/2000/svg" xmlns:xlink="http://www.w3.org/1999/xlink" x="0px" y="0px" xml:space="preserve" viewBox="0 0 32 32">
    <path d="M30,5H2C1.448,5,1,5.448,1,6v22c0,0.552,0.448,1,1,1h28c0.552,0,1-0.448,1-1V6
	C31,5.448,30.552,5,30,5z M29,27H3V7h26V27z M8,16H4v10h4V16z M7,25H5v-8h2V25z M13,12H9v14h4V12z M12,25h-2V13h2V25z M18,20h-4v6h4
	V20z M17,25h-2v-4h2V25z M23,16h-4v10h4V16z M22,25h-2v-8h2V25z M28,8h-4v18h4V8z M27,25h-2V9h2V25z"></path>
  </symbol>
  <symbol role="img" xmlns="http://www.w3.org/2000/svg" viewBox="0 0 24 24" id="investment">
    <path d="M20.447 20.452h-3.554v-5.569c0-1.328-.027-3.037-1.852-3.037-1.853 0-2.136 1.445-2.136 2.939v5.667H9.351V9h3.414v1.561h.046c.477-.9 1.637-1.85 3.37-1.85 3.601 0 4.267 2.37 4.267 5.455v6.286zM5.337 7.433a2.062 2.062 0 0 1-2.063-2.065 2.064 2.064 0 1 1 2.063 2.065zm1.782 13.019H3.555V9h3.564v11.452zM22.225 0H1.771C.792 0 0 .774 0 1.729v20.542C0 23.227.792 24 1.771 24h20.451C23.2 24 24 23.227 24 22.271V1.729C24 .774 23.2 0 22.222 0h.003z"></path>
  </symbol>
  <symbol version="1.1" id="linkedin" xmlns="http://www.w3.org/2000/svg" xmlns:xlink="http://www.w3.org/1999/xlink" x="0px" y="0px" xml:space="preserve" viewBox="0 0 485.541 485.541">
    <g>
      <g id="XMLID_1854_">
        <path id="XMLID_1882_" d="M136.475,105.77c-42.1,0-76.3,34.1-76.3,76.3s34.1,76.3,76.3,76.3s76.3-34.1,76.3-76.3
			S178.575,105.77,136.475,105.77z M136.475,157.17c-13.7,0-24.9,11.1-24.9,24.9c0,6.3-5.1,11.4-11.4,11.4s-11.4-5.1-11.4-11.4
			c0-26.3,21.4-47.6,47.6-47.6c6.3,0,11.4,5.1,11.4,11.4S142.675,157.17,136.475,157.17z"></path>
        <path id="XMLID_1874_" d="M349.075,53.77c-42.1,0-76.3,34.1-76.3,76.3s34.1,76.3,76.3,76.3s76.3-34.1,76.3-76.3
			S391.275,53.77,349.075,53.77z M349.075,105.17c-13.7,0-24.9,11.1-24.9,24.9c0,6.3-5.1,11.4-11.4,11.4s-11.4-5.1-11.4-11.4
			c0-26.3,21.4-47.6,47.6-47.6c6.3,0,11.4,5.1,11.4,11.4C360.475,100.07,355.375,105.17,349.075,105.17z"></path>
        <path id="XMLID_1879_" d="M485.475,309.07v-1.6c0-0.1,0-0.2,0-0.2c-0.7-21.5-4.7-36.3-26.7-50.1c-29.1-18.3-61.6-34.1-61.6-34.1
			l-25.9,81.8l-15.1-30.4c26.5-37-1.9-38.9-6.9-38.9l0,0c0,0-0.1,0-0.2,0s-0.1,0-0.2,0l0,0c-5.1,0-33.5,1.9-6.9,38.9l-15.1,30.4
			l-25.9-81.8c0,0-32.5,15.8-61.6,34.1c-6.7,4.2-11.7,8.5-15.5,13.1c10.5,5.7,22.5,12.6,34.1,19.9c14.1,8.9,23.8,19.2,29.7,31.6
			c5.8,12.3,7.1,24.9,7.4,35.7c0.1,0.7,0.1,1.4,0.1,2.1v1.3c0.1,4.4,0.1,8.9,0,13.5c0,0.3,0,0.5,0,0.8v4.6h53.7h136.5v-59.2
			c0,1,0,1.6,0,1.6C485.575,317.57,485.575,313.17,485.475,309.07z M485.275,306.87C485.275,306.47,485.275,306.47,485.275,306.87
			L485.275,306.87z"></path>
        <g id="XMLID_1878_">
          <g id="XMLID_1881_">
            <path d="M272.775,361.07v-1.6c0-0.1,0-0.2,0-0.2c-0.6-21.5-4.7-36.3-26.7-50.1c-29.1-18.3-61.6-34.1-61.6-34.1l-25.9,81.8
					l-15.1-30.4c26.5-37-1.9-38.9-6.9-38.9l0,0c0,0-0.1,0-0.2,0s-0.1,0-0.2,0l0,0c-5.1,0-33.5,1.9-6.9,38.9l-15.1,30.4l-25.9-81.8
					c0,0-32.5,15.8-61.6,34.1c-21.9,13.8-25.9,28.6-26.6,50.1c0,0.1,0,0.1,0,0.2v1.6c-0.1,4.1-0.1,8.5,0,13.1c0,0,0-0.6,0-1.6v59.2
					h136.2h136.5v-59.2c0,1,0,1.6,0,1.6C272.875,369.57,272.875,365.17,272.775,361.07z"></path>
          </g>
          <g id="XMLID_1880_">
            <path d="M0.275,358.87C0.275,358.47,0.275,358.47,0.275,358.87C0.275,358.97,0.275,358.87,0.275,358.87z"></path>
          </g>
          <g id="XMLID_1851_">
            <path d="M272.575,358.97C272.575,358.47,272.575,358.47,272.575,358.97C272.575,358.87,272.575,358.97,272.575,358.97z"></path>
          </g>
        </g>
      </g>
    </g>
    <g></g>
    <g></g>
    <g></g>
    <g></g>
    <g></g>
    <g></g>
    <g></g>
    <g></g>
    <g></g>
    <g></g>
    <g></g>
    <g></g>
    <g></g>
    <g></g>
    <g></g>
  </symbol>
  <symbol id="meeting" enable-background="new 0 0 24 24" xmlns="http://www.w3.org/2000/svg" viewBox="0 0 24 24">
    <g>
      <path d="m21.5 24h-19c-1.379 0-2.5-1.122-2.5-2.5v-19c0-1.378 1.121-2.5 2.5-2.5h19c1.379 0 2.5 1.122 2.5 2.5v19c0 1.378-1.121 2.5-2.5 2.5zm-19-23c-.827 0-1.5.673-1.5 1.5v19c0 .827.673 1.5 1.5 1.5h19c.827 0 1.5-.673 1.5-1.5v-19c0-.827-.673-1.5-1.5-1.5z"></path>
    </g>
    <g>
      <path d="m16.5 8h-9c-.276 0-.5-.224-.5-.5s.224-.5.5-.5h9c.276 0 .5.224.5.5s-.224.5-.5.5z"></path>
    </g>
    <g>
      <path d="m16.5 12.5h-9c-.276 0-.5-.224-.5-.5s.224-.5.5-.5h9c.276 0 .5.224.5.5s-.224.5-.5.5z"></path>
    </g>
    <g>
      <path d="m16.5 17h-9c-.276 0-.5-.224-.5-.5s.224-.5.5-.5h9c.276 0 .5.224.5.5s-.224.5-.5.5z"></path>
    </g>
  </symbol>
  <symbol version="1.1" xmlns="http://www.w3.org/2000/svg" viewBox="0 0 20 20" id="menu">
    <g id="layer1">
      <path d="M 17.550781 1.0019531 L 17.345703 1.0078125 L 17.144531 1.0429688 L 16.949219 1.1054688 L 16.765625 1.1933594 L 16.59375 1.3046875 L 16.439453 1.4394531 L 12.548828 5.328125 L 12.326172 5.5351562 L 12.082031 5.7207031 L 11.826172 5.8847656 L 11.554688 6.0253906 L 11.273438 6.1425781 L 10.982422 6.234375 L 10.681641 6.3007812 L 10.380859 6.3417969 L 10.076172 6.3535156 L 9.7695312 6.3417969 L 9.46875 6.3007812 L 9.1699219 6.234375 L 8.8789062 6.1425781 L 8.5957031 6.0253906 L 8.3242188 5.8847656 L 8.0683594 5.7207031 L 7.8261719 5.5351562 L 7.6015625 5.328125 L 0.52929688 12.400391 L 7.6015625 19.470703 L 14.671875 12.400391 L 14.464844 12.173828 L 14.279297 11.931641 L 14.115234 11.675781 L 13.974609 11.404297 L 13.857422 11.121094 L 13.765625 10.830078 L 13.699219 10.533203 L 13.660156 10.230469 L 13.646484 9.9238281 L 13.660156 9.6191406 L 13.699219 9.3183594 L 13.765625 9.0175781 L 13.857422 8.7265625 L 13.974609 8.4453125 L 14.115234 8.1757812 L 14.279297 7.9179688 L 14.464844 7.6738281 L 14.671875 7.4511719 L 18.560547 3.5605469 L 18.695312 3.40625 L 18.806641 3.2363281 L 18.894531 3.0507812 L 18.957031 2.8554688 L 18.992188 2.6542969 L 18.998047 2.4492188 L 18.976562 2.2460938 L 18.929688 2.046875 L 18.853516 1.8574219 L 18.753906 1.6777344 L 18.628906 1.5136719 L 18.486328 1.3710938 L 18.322266 1.2460938 L 18.142578 1.1464844 L 17.953125 1.0703125 L 17.755859 1.0234375 L 17.550781 1.0019531 z M 17.443359 2.0039062 L 17.556641 2.0039062 L 17.664062 2.0292969 L 17.765625 2.0761719 L 17.853516 2.1464844 L 17.923828 2.234375 L 17.970703 2.3359375 L 17.996094 2.4433594 L 17.996094 2.5566406 L 17.970703 2.6660156 L 17.923828 2.7675781 L 17.853516 2.8554688 L 13.964844 6.7421875 L 13.722656 7.0039062 L 13.501953 7.2851562 L 13.304688 7.5820312 L 13.132812 7.8925781 L 12.984375 8.2167969 L 12.861328 8.5527344 L 12.765625 8.8945312 L 12.697266 9.2460938 L 12.658203 9.5996094 L 12.646484 9.9550781 L 12.662109 10.310547 L 12.707031 10.666016 L 12.78125 11.013672 L 12.880859 11.357422 L 13.007812 11.689453 L 13.160156 12.011719 L 13.335938 12.320312 L 12.904297 12.751953 L 7.2480469 7.0957031 L 7.6796875 6.6640625 L 7.9882812 6.8398438 L 8.3125 6.9941406 L 8.6445312 7.1191406 L 8.9863281 7.21875 L 9.3359375 7.2929688 L 9.6894531 7.3378906 L 10.044922 7.3535156 L 10.400391 7.3417969 L 10.753906 7.3027344 L 11.105469 7.234375 L 11.447266 7.1386719 L 11.783203 7.0175781 L 12.107422 6.8691406 L 12.417969 6.6953125 L 12.714844 6.4980469 L 12.996094 6.2773438 L 13.257812 6.0351562 L 17.146484 2.1464844 L 17.232422 2.0761719 L 17.333984 2.0292969 L 17.443359 2.0039062 z M 6.5410156 7.8027344 L 12.197266 13.458984 L 10.642578 15.015625 L 10.623047 14.759766 L 10.585938 14.505859 L 10.556641 14.380859 L 10.519531 14.257812 L 10.46875 14.140625 L 10.404297 14.029297 L 10.326172 13.925781 L 10.236328 13.837891 L 10.130859 13.761719 L 10.017578 13.703125 L 9.8964844 13.660156 L 9.7714844 13.634766 L 9.6425781 13.623047 L 9.515625 13.623047 L 9.3867188 13.634766 L 9.2597656 13.654297 L 9.0097656 13.710938 L 8.765625 13.785156 L 8.5234375 13.869141 L 8.046875 14.058594 L 7.6054688 14.228516 L 7.5976562 14.248047 L 7.5683594 14.242188 L 7.6054688 14.228516 L 8.1015625 12.9375 L 8.2128906 12.605469 L 8.3066406 12.265625 L 8.34375 12.09375 L 8.3691406 11.921875 L 8.3808594 11.748047 L 8.3710938 11.572266 L 8.3574219 11.484375 L 8.3359375 11.400391 L 8.3085938 11.316406 L 8.2695312 11.236328 L 8.2246094 11.162109 L 8.1679688 11.09375 L 8.1054688 11.03125 L 8.0371094 10.976562 L 7.9609375 10.931641 L 7.8808594 10.896484 L 7.796875 10.869141 L 7.7109375 10.853516 L 7.6230469 10.84375 L 7.5351562 10.841797 L 7.3613281 10.857422 L 7.1875 10.892578 L 7.0195312 10.9375 L 6.6835938 11.042969 L 6.3535156 11.158203 L 6.1855469 11.212891 L 6.0390625 11.25 L 6.0390625 11.263672 L 6.0136719 11.255859 L 6.0390625 11.25 L 6.0566406 10.951172 L 6.078125 10.640625 L 6.0800781 10.484375 L 6.0761719 10.328125 L 6.0585938 10.173828 L 6.0292969 10.019531 L 5.984375 9.8710938 L 5.9238281 9.7265625 L 5.8515625 9.5898438 L 5.765625 9.4589844 L 5.6660156 9.3378906 L 5.5566406 9.2265625 L 5.4375 9.125 L 5.3144531 9.03125 L 6.5410156 7.8027344 z M 4.5898438 9.7519531 L 4.7167969 9.8320312 L 4.8359375 9.9238281 L 4.9414062 10.029297 L 4.984375 10.089844 L 5.0195312 10.15625 L 5.0488281 10.224609 L 5.0644531 10.296875 L 5.0800781 10.445312 L 5.0703125 10.744141 L 5.0488281 11.041016 L 5.0371094 11.339844 L 5.0449219 11.488281 L 5.0664062 11.636719 L 5.109375 11.779297 L 5.1738281 11.914062 L 5.2148438 11.974609 L 5.2636719 12.033203 L 5.3164062 12.085938 L 5.375 12.132812 L 5.4394531 12.171875 L 5.5058594 12.207031 L 5.6484375 12.251953 L 5.7949219 12.273438 L 5.9433594 12.273438 L 6.09375 12.257812 L 6.2382812 12.230469 L 6.5273438 12.152344 L 6.8105469 12.056641 L 7.0917969 11.958984 L 7.3632812 11.880859 L 7.3671875 11.857422 L 7.3789062 11.876953 L 7.3632812 11.880859 L 7.328125 12.056641 L 7.2734375 12.253906 L 7.1445312 12.640625 L 6.8476562 13.404297 L 6.6992188 13.785156 L 6.6308594 13.978516 L 6.5703125 14.173828 L 6.5234375 14.373047 L 6.5078125 14.472656 L 6.5 14.576172 L 6.5 14.677734 L 6.5136719 14.779297 L 6.5410156 14.878906 L 6.5800781 14.972656 L 6.6328125 15.060547 L 6.6992188 15.138672 L 6.7773438 15.207031 L 6.8652344 15.257812 L 6.9589844 15.298828 L 7.0605469 15.324219 L 7.1601562 15.335938 L 7.2636719 15.337891 L 7.3652344 15.328125 L 7.4667969 15.310547 L 7.6640625 15.261719 L 7.859375 15.199219 L 8.0507812 15.130859 L 8.8105469 14.830078 L 9.1972656 14.695312 L 9.3964844 14.646484 L 9.4980469 14.628906 L 9.5839844 14.623047 L 9.5800781 14.607422 L 9.5996094 14.621094 L 9.5839844 14.623047 L 9.6035156 14.689453 L 9.6171875 14.771484 L 9.6347656 14.939453 L 9.6523438 15.275391 L 9.671875 15.611328 L 9.7109375 15.945312 L 7.6015625 18.056641 L 1.9453125 12.400391 L 4.5898438 9.7519531 z "></path>
    </g>
  </symbol>
  <symbol xmlns="http://www.w3.org/2000/svg" viewBox="0 0 20 20" id="paintbrush">
    <path fill="#555" d="M10.0146193,0 C4.48352199,0 0,4.4725 0,9.98916667 C0,14.2216667 2.63815212,17.8366667 6.36397811,19.2908333 C6.27626248,18.5 6.1977361,17.2883333 6.39822898,16.425 C6.58117873,15.6441667 7.57278309,11.4608333 7.57278309,11.4608333 C7.57278309,11.4608333 7.27287916,10.8608333 7.27287916,9.97666667 C7.27287916,8.59083333 8.08069838,7.55083333 9.08399816,7.55083333 C9.93943444,7.55083333 10.3521156,8.19166667 10.3521156,8.9575 C10.3521156,9.815 9.80660791,11.0966667 9.52341172,12.2841667 C9.28532643,13.2783333 10.0246439,14.0883333 11.0062236,14.0883333 C12.7839272,14.0883333 14.1539618,12.2175 14.1539618,9.51583333 C14.1539618,7.13166667 12.4305585,5.45833333 9.97034376,5.45833333 C7.12167412,5.45833333 5.45173552,7.59333333 5.45173552,9.79083333 C5.45173552,10.6516667 5.78087799,11.5766667 6.19439455,12.075 C6.27709787,12.175 6.2879579,12.2625 6.26540245,12.3625 C6.19021762,12.675 6.02063406,13.3616667 5.98638319,13.4983333 C5.94210768,13.6858333 5.84269663,13.7241667 5.65139301,13.6358333 C4.40248945,13.0608333 3.61889645,11.2375 3.61889645,9.76416667 C3.61889645,6.6175 5.91453991,3.72083333 10.2351614,3.72083333 C13.7087006,3.72083333 16.4103421,6.19333333 16.4103421,9.49 C16.4103421,12.9358333 14.2324882,15.7083333 11.203375,15.7083333 C10.1892152,15.7083333 9.23687398,15.1841667 8.89937764,14.5591667 L8.27367278,16.9325 C8.04895368,17.8033333 7.43494424,18.8925 7.02226306,19.5541667 C7.96040266,19.8416667 8.94866547,20 9.98788689,20 C15.5072888,20 20,15.5291667 20,10.0108333 C20,4.49166667 15.5072888,0.0216666667 9.98788689,0.0216666667 L10.0146193,0 Z"></path>
  </symbol>
  <symbol version="1.1" preserveAspectRatio="xMidYMid meet" xmlns="http://www.w3.org/2000/svg" xmlns:xlink="http://www.w3.org/1999/xlink" viewBox="0 0 36 36" id="pinterest">
    <title>savings-line</title>
    <path d="M19.72,10.47a11.65,11.65,0,0,0-6.31.52A.8.8,0,1,0,14,12.48,10.11,10.11,0,0,1,19.44,12a.8.8,0,1,0,.28-1.57Z"></path>
    <circle cx="25.38" cy="16.71" r="1.36"></circle>
    <path d="M35.51,18.63a1,1,0,0,0-.84-.44,3.42,3.42,0,0,1-2.09-1.12,17.35,17.35,0,0,1-2.63-3.78l2.88-4.5A1.89,1.89,0,0,0,33,7a1.77,1.77,0,0,0-1.33-1,10.12,10.12,0,0,0-5.39.75,12.72,12.72,0,0,0-2.72,1.63,16.94,16.94,0,0,0-5.16-1.39C11.31,6.3,4.83,10.9,4,17H4a2.56,2.56,0,0,1-1.38-1.53,1.81,1.81,0,0,1,.14-1.4,1.19,1.19,0,0,1,.43-.43,1.08,1.08,0,0,0-1.12-1.85A3.31,3.31,0,0,0,.91,13a4,4,0,0,0-.33,3.08A4.76,4.76,0,0,0,3,18.95l.92.46a17.58,17.58,0,0,0,1.82,7l.17.38A23,23,0,0,0,9.2,31.88a1,1,0,0,0,.75.34h4.52a1,1,0,0,0,.92-1.38L15,29.94l1.18.13a20.33,20.33,0,0,0,4,0c.37.6.77,1.2,1.21,1.79a1,1,0,0,0,.8.41h4.34a1,1,0,0,0,.92-1.39c-.17-.4-.34-.83-.47-1.2-.18-.53-.32-1-.43-1.45A13.18,13.18,0,0,0,29.56,26a12.5,12.5,0,0,0,3,0,1,1,0,0,0,.78-.62l2.26-5.81A1,1,0,0,0,35.51,18.63Zm-3.78,5.44a11.37,11.37,0,0,1-2.35-.11h0a8.2,8.2,0,0,1-2.53-.87,1,1,0,0,0-.93,1.77,11.72,11.72,0,0,0,1.29.58,8,8,0,0,1-1.8,1.16l-1.06.48s.49,2.19.82,3.16H22.79c-.24-.34-1.45-2.36-1.45-2.36l-.67.09a18.53,18.53,0,0,1-4.25.12c-.66-.06-1.76-.2-2.62-.35l-1.55-.27s.63,2.43.75,2.74v0H10.42A20.57,20.57,0,0,1,7.76,26l-.18-.39A14.62,14.62,0,0,1,6,17.48c.54-5.19,6.12-9.11,12.19-8.54a15.47,15.47,0,0,1,5.08,1.48l.62.29.5-.47A10.29,10.29,0,0,1,27,8.54a8.25,8.25,0,0,1,4-.65l-3.38,5.29.25.5h0a21.16,21.16,0,0,0,3.31,4.84,6.49,6.49,0,0,0,2.14,1.39Z"></path>
    <rect x="0" y="0" width="36" height="36" fill-opacity="0"></rect>
  </symbol>
</svg>